<?xml version="1.0" encoding="utf-8"?>
<!-- Generator: Adobe Illustrator 23.0.0, SVG Export Plug-In . SVG Version: 6.00 Build 0)  -->
<svg version="1.1" id="Layer_1" xmlns="http://www.w3.org/2000/svg" xmlns:xlink="http://www.w3.org/1999/xlink" x="0px" y="0px"
	 viewBox="0 0 391 325" style="enable-background:new 0 0 391 325;" xml:space="preserve">
<style type="text/css">
	.st0{fill:none;}
	.st1{fill:#5080C2;}
	.st2{fill:#F6F7FB;}
	.st3{opacity:0.15;}
	.st4{fill:url(#SVGID_1_);}
	.st5{fill:url(#SVGID_2_);}
	.st6{fill:url(#SVGID_3_);}
	.st7{fill:url(#SVGID_4_);}
	.st8{fill:url(#SVGID_5_);}
	.st9{fill:url(#SVGID_6_);}
	.st10{fill:url(#SVGID_7_);}
	.st11{opacity:0.15;fill:url(#SVGID_8_);}
	.st12{opacity:0.15;fill:url(#SVGID_9_);}
	.st13{fill:#4C4371;}
	.st14{fill:#4A36D5;}
	.st15{fill:#5D3CE6;}
	.st16{fill:#DEE4ED;}
	.st17{fill:#00E2AD;}
	.st18{fill:#F2B0A8;}
	.st19{fill:#FCFDFD;}
	.st20{fill:#BFBFBF;}
	.st21{fill:#D0D1D3;}
	.st22{fill:#FFFFFF;}
	.st23{fill:#005F95;}
	.st24{fill:#FFC8BD;}
	.st25{fill:#FFA496;}
	.st26{fill:none;stroke:#58362C;stroke-width:3;stroke-linecap:round;stroke-linejoin:round;stroke-miterlimit:10;}
	.st27{fill:#58362C;}
	.st28{fill:#855543;}
	.st29{fill:url(#SVGID_10_);}
	.st30{fill:#006FBC;}
	.st31{fill:#00074A;}
	.st32{fill:#FF3D40;}
	.st33{fill:#FFA600;}
	.st34{fill:#45D788;}
	.st35{fill:#00DA8F;}
	.st36{fill:#00FCFF;}
	.st37{fill:#FF4F92;}
	.st38{fill:none;stroke:#00FCFF;stroke-width:4;stroke-linecap:round;stroke-linejoin:round;stroke-miterlimit:10;}
	.st39{fill:#FFD600;}
	.st40{fill-rule:evenodd;clip-rule:evenodd;fill:#BBBFF5;}
</style>
<pattern  width="83.6" height="83.6" patternUnits="userSpaceOnUse" id="New_Pattern_Swatch_25" viewBox="0 -83.6 83.6 83.6" style="overflow:visible;">
	<g>
		<rect y="-83.6" class="st0" width="83.6" height="83.6"/>
		<rect y="-83.6" class="st1" width="83.6" height="83.6"/>
	</g>
</pattern>
<path class="st2" d="M388.8,169.7c-7.2-60.6-34.8-110.9-71.9-139.5C279.9,1.9,233.3-4.4,198,2.7c-35.5,7.2-59.7,28-99.7,33.2
	s-73.7,65.4-76.4,128.6c-2.5,63.2-32.6,130.8-18.2,151.9c14.3,21.2,73.1-4.6,146.3-9.1c73.2-4.7,146.6,30,189.8,11.9
	C383.1,301.3,396.1,230.4,388.8,169.7z"/>
<g>
	<g class="st3">
		
			<pattern  id="SVGID_1_" xlink:href="#New_Pattern_Swatch_25" patternTransform="matrix(2.4328 0 0 1.1446 12084.3164 778.8032)"  class="st3">
		</pattern>
		<path class="st4" d="M166.2,295H90.2c-2.7,0-4.8-2.2-4.8-4.8l0,0c0-2.7,2.2-4.8,4.8-4.8h75.9c2.7,0,4.8,2.2,4.8,4.8l0,0
			C171,292.9,168.8,295,166.2,295z"/>
		
			<pattern  id="SVGID_2_" xlink:href="#New_Pattern_Swatch_25" patternTransform="matrix(2.4328 0 0 1.1446 12084.3164 778.8032)"  class="st3">
		</pattern>
		<path class="st5" d="M312.8,295h-82.8c-2.7,0-4.8-2.2-4.8-4.8l0,0c0-2.7,2.2-4.8,4.8-4.8h82.8c2.7,0,4.8,2.2,4.8,4.8l0,0
			C317.6,292.9,315.4,295,312.8,295z"/>
		
			<pattern  id="SVGID_3_" xlink:href="#New_Pattern_Swatch_25" patternTransform="matrix(2.4328 0 0 1.1446 12084.3164 778.8032)"  class="st3">
		</pattern>
		<path class="st6" d="M211.5,295h-24.7c-2.7,0-4.8-2.2-4.8-4.8l0,0c0-2.7,2.2-4.8,4.8-4.8h24.7c2.7,0,4.8,2.2,4.8,4.8l0,0
			C216.3,292.9,214.1,295,211.5,295z"/>
		
			<pattern  id="SVGID_4_" xlink:href="#New_Pattern_Swatch_25" patternTransform="matrix(2.4328 0 0 1.1446 12084.3164 778.8032)"  class="st3">
		</pattern>
		<path class="st7" d="M156.6,316.2h-50c-2.6,0-4.8-2.1-4.8-4.8v-0.1c0-2.6,2.1-4.8,4.8-4.8h50c2.6,0,4.8,2.1,4.8,4.8v0.1
			C161.4,314.1,159.2,316.2,156.6,316.2z"/>
		
			<pattern  id="SVGID_5_" xlink:href="#New_Pattern_Swatch_25" patternTransform="matrix(2.4328 0 0 1.1446 12084.3164 778.8032)"  class="st3">
		</pattern>
		<path class="st8" d="M255.7,316.2H210c-2.6,0-4.8-2.1-4.8-4.8v-0.1c0-2.6,2.1-4.8,4.8-4.8h45.7c2.6,0,4.8,2.1,4.8,4.8v0.1
			C260.5,314.1,258.3,316.2,255.7,316.2z"/>
		
			<pattern  id="SVGID_6_" xlink:href="#New_Pattern_Swatch_25" patternTransform="matrix(2.4328 0 0 1.1446 12084.3164 778.8032)"  class="st3">
		</pattern>
		<path class="st9" d="M289,316.2h-17.9c-2.6,0-4.8-2.1-4.8-4.8v-0.1c0-2.6,2.1-4.8,4.8-4.8H289c2.6,0,4.8,2.1,4.8,4.8v0.1
			C293.7,314.1,291.6,316.2,289,316.2z"/>
		
			<pattern  id="SVGID_7_" xlink:href="#New_Pattern_Swatch_25" patternTransform="matrix(2.4328 0 0 1.1446 12084.3164 778.8032)"  class="st3">
		</pattern>
		<path class="st10" d="M194.2,316.2h-14.8c-2.6,0-4.8-2.1-4.8-4.8v-0.1c0-2.6,2.1-4.8,4.8-4.8h14.8c2.6,0,4.8,2.1,4.8,4.8v0.1
			C199,314.1,196.9,316.2,194.2,316.2z"/>
	</g>
	<pattern  id="SVGID_8_" xlink:href="#New_Pattern_Swatch_25" patternTransform="matrix(2.4328 0 0 1.1446 12084.3164 778.8032)">
	</pattern>
	<path class="st11" d="M331.3,295h-0.5c-2.7,0-4.8-2.2-4.8-4.8v0c0-2.7,2.2-4.8,4.8-4.8h0.5c2.7,0,4.8,2.2,4.8,4.8v0
		C336.1,292.9,333.9,295,331.3,295z"/>
	<pattern  id="SVGID_9_" xlink:href="#New_Pattern_Swatch_25" patternTransform="matrix(2.4328 0 0 1.1446 12084.3164 778.8032)">
	</pattern>
	<path class="st12" d="M74,295H59.2c-2.6,0-4.8-2.1-4.8-4.8v-0.1c0-2.6,2.1-4.8,4.8-4.8H74c2.6,0,4.8,2.1,4.8,4.8v0.1
		C78.8,292.9,76.6,295,74,295z"/>
	<path class="st13" d="M179.9,166.3h43.9c4.4,0,8,3.6,8,8c0,4.4-3.6,8-8,8h-43.9c-4.4,0-8-3.6-8-8
		C171.8,169.9,175.4,166.3,179.9,166.3z"/>
	<path class="st14" d="M233,184.4h-66.7c-5.6,0-10.1-4.5-10.1-10.1l0,0c0-5.6,4.5-10.1,10.1-10.1H233c5.6,0,10.1,4.5,10.1,10.1l0,0
		C243.1,179.9,238.6,184.4,233,184.4z"/>
	<path class="st14" d="M224.2,166.3h-46.5c-4.4,0-8,3.6-8,8c0,4.4,3.6,8,8,8h46.5c4.4,0,8-3.6,8-8
		C232.3,169.9,228.7,166.3,224.2,166.3z"/>
	<path class="st15" d="M261.4,282.6H139.5v-93.7c0-7.5,6.1-13.6,13.6-13.6h94.7c7.5,0,13.6,6.1,13.6,13.6V282.6z"/>
	<rect x="139.5" y="214.4" class="st16" width="121.9" height="68.2"/>
	<path class="st17" d="M246.7,282.6h-92.4v-93.7c0-7.5,6.1-13.6,13.6-13.6h65.3c7.5,0,13.6,6.1,13.6,13.6V282.6z"/>
	<path class="st18" d="M209.7,147.4h-20.1c-0.9,0-1.6,0.7-1.6,1.6v35.2c0,6.4,5.2,11.6,11.6,11.6c6.4,0,11.6-5.2,11.6-11.6v-35.2
		C211.3,148.1,210.6,147.4,209.7,147.4z"/>
	<path class="st19" d="M189.1,140.7c1.1,4.9,5.4,8.6,10.7,8.6c5.2,0,9.6-3.7,10.7-8.6H189.1z"/>
	<path class="st15" d="M162.8,175.3c0,0,18.2,6.8,21.2,24.1c3,17.3,0,83,0,83h-31.2l-4.4-44.6l4.8-58.4l1-1.8L162.8,175.3z"/>
	<path class="st14" d="M177.7,166.3c0,0-25.5-1.7-11.8,16.1c6.1,9,7.7,12.4,11.8,19.3c4.1,6.9,7.6,19.6,7.6,19.6s5-25.3-12.6-45.5
		C172.8,176,177.7,166.3,177.7,166.3z"/>
	<path class="st15" d="M240.1,175.3c0,0-19.6,6.8-22.6,24.1c-3,17.3,0,83,0,83h31.2l4.4-44.6l-4.4-53.4l0,0L240.1,175.3z"/>
	<path class="st14" d="M223.7,166.3c0,0,25.5-1.7,11.8,16.1c-6.1,9-7.7,12.4-11.8,19.3c-4.1,6.9-7.6,19.6-7.6,19.6
		s-5-25.3,12.6-45.5C228.7,176,223.7,166.3,223.7,166.3z"/>
	<polygon class="st15" points="139.5,190.9 119.1,282.4 152.8,282.4 169.7,260.1 	"/>
	<polygon class="st15" points="261.4,190.9 281.8,282.4 248.1,282.4 231.2,260.1 	"/>
	<path class="st20" d="M283.2,295.1h-164c-3.4,0-6.2-2.8-6.2-6.2v-0.1c0-3.4,2.8-6.2,6.2-6.2h164c3.4,0,6.2,2.8,6.2,6.2v0.1
		C289.3,292.3,286.6,295.1,283.2,295.1z"/>
	<path class="st21" d="M267,295.1H134.3c-5,0-9.1-4.1-9.1-9.1v-75.1c0-5,4.1-9.1,9.1-9.1H267c5,0,9.1,4.1,9.1,9.1V286
		C276.1,291,272,295.1,267,295.1z"/>
	<path class="st22" d="M198.8,259c-5.8,0-10.5-4.7-10.5-10.5c0-5.8,4.7-10.5,10.5-10.5c5.8,0,10.5,4.7,10.5,10.5
		C209.3,254.3,204.6,259,198.8,259z"/>
	<g>
		<path class="st23" d="M204.8,245.9c-0.3-0.8-0.8-1.5-1.4-2.1c-0.6-0.6-1.3-1.1-2.1-1.4c-0.8-0.3-1.7-0.5-2.6-0.5
			c-0.9,0-1.8,0.2-2.6,0.5c-0.8,0.3-1.5,0.8-2.1,1.4c-0.6,0.6-1.1,1.3-1.4,2.1c-0.3,0.8-0.5,1.7-0.5,2.6c0,0.9,0.2,1.8,0.5,2.6
			c0.3,0.8,0.8,1.5,1.4,2.1c0.6,0.6,1.3,1.1,2.1,1.4c0.8,0.3,1.7,0.5,2.6,0.5c0.9,0,1.8-0.2,2.6-0.5c0.8-0.3,1.5-0.8,2.1-1.4
			c0.6-0.6,1.1-1.3,1.4-2.1c0.3-0.8,0.5-1.7,0.5-2.6C205.4,247.6,205.2,246.7,204.8,245.9z M204.4,250.8c-0.3,0.7-0.8,1.4-1.3,2
			s-1.2,1-2,1.3c-0.7,0.3-1.5,0.5-2.4,0.5c-0.8,0-1.6-0.2-2.4-0.5c-0.7-0.3-1.4-0.8-2-1.3c-0.6-0.6-1-1.2-1.3-2
			c-0.3-0.7-0.5-1.5-0.5-2.4c0-0.8,0.2-1.6,0.5-2.4c0.3-0.7,0.8-1.4,1.3-1.9c0.6-0.6,1.2-1,2-1.3c0.7-0.3,1.5-0.5,2.4-0.5
			c0.8,0,1.6,0.2,2.4,0.5c0.7,0.3,1.4,0.8,2,1.3c0.6,0.6,1,1.2,1.3,1.9c0.3,0.7,0.5,1.5,0.5,2.4
			C204.9,249.3,204.7,250.1,204.4,250.8z"/>
		<path class="st23" d="M197.2,253.9c0.3,0.1,0.5,0.1,0.8,0.2c0.3,0,0.5,0.1,0.8,0.1c0.6,0,1.3-0.1,1.9-0.3l-1.8-4.7L197.2,253.9z"
			/>
		<path class="st23" d="M202,250.5c0.1-0.4,0.2-0.7,0.3-0.9c0.1-0.3,0.1-0.5,0.2-0.6c0.1-0.4,0.2-0.7,0.1-1c0-0.3-0.1-0.6-0.2-0.9
			c-0.1-0.1-0.1-0.3-0.3-0.5s-0.2-0.4-0.3-0.6c-0.1-0.2-0.2-0.4-0.2-0.6c0-0.2,0-0.4,0.1-0.6c0.1-0.2,0.3-0.4,0.4-0.4
			c0.2-0.1,0.3-0.1,0.5-0.1c-0.5-0.5-1.1-0.8-1.7-1.1c-0.6-0.3-1.3-0.4-2.1-0.4c-1,0-1.9,0.2-2.7,0.7c-0.8,0.5-1.5,1.1-2,1.8
			c0.2,0,0.5,0,0.8,0c0.3,0,0.6,0,1-0.1c0.1,0,0.1,0,0.2,0.1c0.1,0,0.1,0.1,0.1,0.2c0,0.1-0.1,0.2-0.2,0.2c-0.1,0-0.2,0-0.3,0
			c-0.1,0-0.2,0-0.3,0l2.1,6l1.2-3.6l-0.9-2.4c-0.2,0-0.3,0-0.4-0.1c-0.1,0-0.2,0-0.2,0c-0.1,0-0.1,0-0.2-0.1c0-0.1-0.1-0.1,0-0.2
			c0-0.1,0-0.1,0.1-0.2c0.1,0,0.1-0.1,0.2,0l0.2,0l0.6,0c0.4,0,0.7,0,0.9,0c0.2,0,0.6-0.1,1.2-0.1c0.1,0,0.1,0,0.2,0.1
			c0.1,0,0.1,0.1,0.1,0.2c0,0.1-0.1,0.2-0.2,0.2c-0.1,0-0.2,0-0.3,0c-0.1,0-0.2,0-0.3,0l2,6C201.7,251.3,201.9,250.8,202,250.5z"/>
		<path class="st23" d="M193.2,248.5c0,0.6,0.1,1.1,0.2,1.6c0.2,0.5,0.4,1,0.6,1.4c0.3,0.4,0.6,0.8,1,1.2c0.4,0.3,0.8,0.6,1.3,0.9
			l-2.7-7.3C193.3,246.9,193.2,247.7,193.2,248.5z"/>
		<path class="st23" d="M203.8,246.2c0,0.1,0,0.2,0,0.3c-0.1,0.5-0.2,1-0.3,1.5c-0.2,0.4-0.3,0.9-0.4,1.3c-0.1,0.2-0.2,0.5-0.3,0.8
			c-0.1,0.4-0.3,0.8-0.4,1.2c-0.2,0.4-0.3,0.8-0.4,1.2c-0.1,0.4-0.2,0.7-0.3,0.8c0.4-0.2,0.8-0.5,1.1-0.9c0.3-0.3,0.6-0.7,0.9-1.1
			c0.2-0.4,0.4-0.9,0.6-1.3c0.1-0.5,0.2-1,0.2-1.5c0-0.9-0.2-1.8-0.6-2.6C203.7,245.9,203.8,246.1,203.8,246.2z"/>
	</g>
	<path class="st24" d="M236.2,117.2v-3.9c0-20.4-16.7-37.1-37.1-37.1h0c-20.4,0-37.1,16.7-37.1,37.1v15.2c0,1,0.1,2,0.3,3
		c2.4,18.5,18.2,37,37.3,37c20.8,0,37.7-21.2,37.7-42C237.3,123.4,236.9,120.2,236.2,117.2z"/>
	<circle class="st24" cx="162.2" cy="131.9" r="10.5"/>
	<circle class="st24" cx="236.2" cy="131.9" r="10.5"/>
	<path class="st25" d="M162,125c-3.5,0.3-6.3,3.3-6.3,6.9s2.8,6.6,6.3,6.9V125z"/>
	<path class="st25" d="M235.5,125c3.5,0.3,6.3,3.3,6.3,6.9s-2.8,6.6-6.3,6.9V125z"/>
	<g>
		<g>
			<circle class="st26" cx="184.4" cy="123.1" r="12.5"/>
			<circle class="st26" cx="216.6" cy="123.1" r="12.5"/>
		</g>
		<path class="st26" d="M196.8,124.4c0-1.8,1.6-3.3,3.7-3.3c2,0,3.7,1.5,3.7,3.3"/>
		<circle class="st27" cx="184.8" cy="128.4" r="2.7"/>
		<circle class="st27" cx="217.4" cy="128.4" r="2.7"/>
	</g>
	<g>
		<path class="st28" d="M241.5,89.6c0.1-2.9,0.4-5.8,0.4-8.7c-0.2-8.1-5.1-14.4-12.8-16.5c-7.2-2-13.9-0.4-20.2,3.3
			c-3.5,2.1-7.2,3.9-10.9,5.7c-2.5,1.2-36.9-1.1-37.1,29.2c0,3.5,0.3,9.8,1.3,18.9c3.2-2.4,7.6-16.8,16.7-17.2
			c21.4-0.9,30.9-4.1,33.7-5.7c7.7-4.2,12.8-2.3,16,5.8c0.4,1.1,0.9,2.2,1.1,3.4c1.2,4.7,1.5,13.1,6.4,13.7c0.9,0.1,2.1-8,2.4-8.6
			c1.9-3.7,3.3-5.3,5.5-8C248,99.7,249.6,92,241.5,89.6z"/>
	</g>
	<g>
		<linearGradient id="SVGID_10_" gradientUnits="userSpaceOnUse" x1="235.4915" y1="84.4871" x2="179.7439" y2="95.405">
			<stop  offset="0" style="stop-color:#855543"/>
			<stop  offset="1" style="stop-color:#77472F"/>
		</linearGradient>
		<path class="st29" d="M236,112.2c0.1,1,0.1,2.2-0.6,3c-0.7,0.8-0.5,0.8-0.8-0.2c-0.2,1.5,0.5,3-0.3,4.2c-0.8,1.3,1.2-0.2-0.2-0.6
			c-1.9-0.5,0-2-0.4-3.9c-1.1-5.8-7.6-17.3-8.7-23.1c-5.7-2.5-12,5.6-18.2,6c-16.9,1.1-37.3,4.7-49.6-10.1c-3.3-4-2-9.2,0.8-9.2
			c2.8,0.1,5.2,1.6,7.6,3.1c-2-2.7-4.1-5.5-4.8-8.8c-0.7-3.3,0.3-7.2,3.2-8.9c1.3-0.8,2.9-1,4.4-1c6.6-0.2,12.9,2.6,18.9,5.3
			c-1.1-1.3-2.3-2.8-2.5-4.6c-0.2-1.8,1.2-3.8,2.9-3.5c1.1,0.1,1.8,1,2.6,1.7c5.1,4.7,11.4,8.2,19.8,5.2c6.5-2.4,14.6,1.9,19,7.2
			c2.4,3,3.8,6.4,3.1,8.6C229.6,91.4,235.8,103.2,236,112.2z"/>
	</g>
</g>
<g>
	<path class="st30" d="M102.3,98.1H60.5c-3,0-5.5,2.4-5.5,5.5v51.6c0,3,2.4,5.5,5.5,5.5h41.8c3,0,5.5-2.4,5.5-5.5v-51.6
		C107.8,100.5,105.3,98.1,102.3,98.1z"/>
	<g>
		<g>
			<path class="st22" d="M76.1,135.8c-0.2,0-0.5-0.1-0.6-0.3L70,130c-0.3-0.3-0.3-0.9,0-1.2l5.5-5.5c0.2-0.2,0.4-0.3,0.7-0.3
				c0.2,0,0.4,0.1,0.6,0.2c0.4,0.3,0.4,0.9,0.1,1.2c0,0,0,0-0.1,0.1l-4.9,4.9l4.9,4.9c0.3,0.3,0.3,0.9,0,1.2
				C76.6,135.7,76.4,135.8,76.1,135.8L76.1,135.8z"/>
			<path class="st22" d="M86.7,135.8c-0.2,0-0.5-0.1-0.6-0.3c-0.3-0.3-0.3-0.9,0-1.2l0.4-0.4h0l4.5-4.5l-4.9-4.9
				c-0.2-0.2-0.3-0.4-0.3-0.6c0-0.2,0.1-0.5,0.3-0.6c0.2-0.2,0.4-0.3,0.6-0.3c0.2,0,0.5,0.1,0.6,0.3l5.5,5.5c0.3,0.3,0.3,0.9,0,1.2
				l-5.5,5.5C87.1,135.7,86.9,135.8,86.7,135.8L86.7,135.8z"/>
			<path class="st22" d="M79.6,136.6c0,0-0.1,0-0.1,0c-0.2,0-0.4-0.2-0.5-0.4c-0.1-0.2-0.2-0.4-0.1-0.7l2.9-12.7
				c0.1-0.4,0.4-0.7,0.9-0.7c0.1,0,0.1,0,0.2,0c0.2,0.1,0.4,0.2,0.6,0.4c0.1,0.2,0.2,0.4,0.1,0.7l-2.9,12.7
				c-0.1,0.4-0.4,0.7-0.9,0.7C79.6,136.6,79.6,136.6,79.6,136.6z"/>
		</g>
		<g>
			<path class="st22" d="M96.4,153.1H66.5c-3.1,0-5.7-2.6-5.7-5.7v-36.1c0-3.1,2.6-5.7,5.7-5.7h0.8c0.4,0,0.8,0.4,0.8,0.8
				s-0.4,0.8-0.8,0.8h-0.8c-2.3,0-4.1,1.8-4.1,4.1v36.1c0,2.3,1.8,4.1,4.1,4.1h29.9c2.3,0,4.1-1.8,4.1-4.1v-36.1
				c0-2.3-1.8-4.1-4.1-4.1H82.1c-0.4,0-0.8-0.4-0.8-0.8s0.4-0.8,0.8-0.8h14.2c3.1,0,5.7,2.6,5.7,5.7v36.1
				C102,150.6,99.5,153.1,96.4,153.1z"/>
		</g>
		<circle class="st22" cx="71.4" cy="106.5" r="0.9"/>
		<circle class="st22" cx="74.9" cy="106.5" r="0.9"/>
		<circle class="st22" cx="78.3" cy="106.5" r="0.9"/>
	</g>
</g>
<g>
	<path class="st22" d="M342,125.7h-67.7c-1.6,0-2.9-1.3-2.9-2.9v-81c0-1.6,1.3-2.9,2.9-2.9H342c1.6,0,2.9,1.3,2.9,2.9v81
		C344.9,124.4,343.6,125.7,342,125.7z"/>
	<g>
		<path class="st31" d="M337.6,50.1h-58.3c-1,0-1.8,0.8-1.8,1.8v67c0,1,0.8,1.8,1.8,1.8h58.3c1,0,1.8-0.8,1.8-1.8v-67
			C339.5,50.9,338.7,50.1,337.6,50.1z"/>
		<path class="st32" d="M281.5,44.1L281.5,44.1c0-0.9-0.8-1.7-1.7-1.7c-0.9,0-1.7,0.8-1.7,1.7c0,0,0,0,0,0c0,0,0,0,0,0
			c0,0.6,0.3,1.1,0.8,1.4c0.2,0.1,0.4,0.2,0.6,0.3c0.1,0,0.2,0,0.3,0s0.2,0,0.3,0c0.2,0,0.4-0.1,0.6-0.3
			C281.2,45.2,281.5,44.7,281.5,44.1C281.5,44.1,281.5,44.1,281.5,44.1z"/>
		<path class="st33" d="M285.7,42.4c-0.9,0-1.7,0.8-1.7,1.7c0,0,0,0,0,0c0,0,0,0,0,0c0,0.6,0.3,1.1,0.8,1.4c0.2,0.1,0.4,0.2,0.6,0.3
			c0.1,0,0.2,0,0.3,0s0.2,0,0.3,0c0.2,0,0.4-0.1,0.6-0.3c0.1-0.1,0.2-0.1,0.3-0.2c0.3-0.3,0.5-0.7,0.5-1.2
			C287.5,43.2,286.7,42.4,285.7,42.4z"/>
		<path class="st34" d="M293.4,44.1L293.4,44.1c0-0.9-0.8-1.7-1.7-1.7c-0.9,0-1.7,0.8-1.7,1.7c0,0,0,0,0,0c0,0,0,0,0,0
			c0,0.6,0.3,1.1,0.8,1.4c0.2,0.1,0.4,0.2,0.6,0.3c0.1,0,0.2,0,0.3,0c0.1,0,0.2,0,0.3,0c0.2,0,0.4-0.1,0.6-0.3
			C293.1,45.2,293.4,44.7,293.4,44.1C293.4,44.1,293.4,44.1,293.4,44.1z"/>
		<g>
			<path class="st35" d="M283.4,60c-0.1,0-0.3,0-0.3-0.1l-1.5-1.5c-0.2-0.2-0.2-0.5,0-0.7l1.5-1.5c0.2-0.2,0.5-0.2,0.7,0
				s0.2,0.5,0,0.7l-1.1,1.1l1.1,1.1c0.2,0.2,0.2,0.5,0,0.7C283.7,59.9,283.5,60,283.4,60z"/>
		</g>
		<g>
			<path class="st35" d="M287.8,60c-0.1,0-0.3,0-0.3-0.1c-0.2-0.2-0.2-0.5,0-0.7l1.1-1.1l-1.1-1.1c-0.2-0.2-0.2-0.5,0-0.7
				c0.2-0.2,0.5-0.2,0.7,0l1.5,1.5c0.2,0.2,0.2,0.5,0,0.7l-1.5,1.5C288,59.9,287.9,60,287.8,60z"/>
		</g>
		<g>
			<path class="st35" d="M285,60.2c-0.1,0-0.1,0-0.2,0c-0.3-0.1-0.4-0.4-0.3-0.6l1.2-3.2c0.1-0.3,0.4-0.4,0.6-0.3
				c0.3,0.1,0.4,0.4,0.3,0.6l-1.2,3.2C285.4,60.1,285.2,60.2,285,60.2z"/>
		</g>
		<circle class="st35" cx="290.8" cy="59.8" r="0.4"/>
		<circle class="st35" cx="292.6" cy="59.8" r="0.4"/>
		<circle class="st35" cx="294.3" cy="59.8" r="0.4"/>
		<g>
			<path class="st35" d="M327.2,65.4h-44.5c-0.4,0-0.7-0.3-0.7-0.7s0.3-0.7,0.7-0.7h44.5c0.4,0,0.7,0.3,0.7,0.7
				S327.5,65.4,327.2,65.4z"/>
		</g>
		<g>
			<path class="st35" d="M333.3,65.4h-3.4c-0.4,0-0.7-0.3-0.7-0.7s0.3-0.7,0.7-0.7h3.4c0.4,0,0.7,0.3,0.7,0.7S333.7,65.4,333.3,65.4
				z"/>
		</g>
		<g>
			<path class="st36" d="M310.5,70.9h-27.8c-0.4,0-0.7-0.3-0.7-0.7s0.3-0.7,0.7-0.7h27.8c0.4,0,0.7,0.3,0.7,0.7
				S310.9,70.9,310.5,70.9z"/>
		</g>
		<g>
			<path class="st36" d="M319.6,70.9h-5c-0.4,0-0.7-0.3-0.7-0.7s0.3-0.7,0.7-0.7h5c0.4,0,0.7,0.3,0.7,0.7S320,70.9,319.6,70.9z"/>
		</g>
		<g>
			<path class="st36" d="M324.2,75.1h-13.5c-0.4,0-0.7-0.3-0.7-0.7c0-0.4,0.3-0.7,0.7-0.7h13.5c0.4,0,0.7,0.3,0.7,0.7
				C324.9,74.9,324.6,75.1,324.2,75.1z"/>
		</g>
		<g>
			<path class="st36" d="M307.5,75.1h-2.7c-0.4,0-0.7-0.3-0.7-0.7c0-0.4,0.3-0.7,0.7-0.7h2.7c0.4,0,0.7,0.3,0.7,0.7
				C308.1,74.9,307.9,75.1,307.5,75.1z"/>
		</g>
		<g>
			<path class="st36" d="M301.6,75.1h-2.7c-0.4,0-0.7-0.3-0.7-0.7c0-0.4,0.3-0.7,0.7-0.7h2.7c0.4,0,0.7,0.3,0.7,0.7
				C302.3,74.9,302,75.1,301.6,75.1z"/>
		</g>
		<g>
			<path class="st36" d="M295.7,75.1H293c-0.4,0-0.7-0.3-0.7-0.7c0-0.4,0.3-0.7,0.7-0.7h2.7c0.4,0,0.7,0.3,0.7,0.7
				C296.4,74.9,296.1,75.1,295.7,75.1z"/>
		</g>
		<g>
			<path class="st36" d="M290.2,75.1h-2.7c-0.4,0-0.7-0.3-0.7-0.7c0-0.4,0.3-0.7,0.7-0.7h2.7c0.4,0,0.7,0.3,0.7,0.7
				C290.8,74.9,290.6,75.1,290.2,75.1z"/>
		</g>
		<g>
			<path class="st37" d="M324.2,79.5h-37.3c-0.4,0-0.7-0.3-0.7-0.7s0.3-0.7,0.7-0.7h37.3c0.4,0,0.7,0.3,0.7,0.7
				S324.5,79.5,324.2,79.5z"/>
		</g>
		<g>
			<path class="st36" d="M283.7,75.1h-1c-0.4,0-0.7-0.3-0.7-0.7c0-0.4,0.3-0.7,0.7-0.7h1c0.4,0,0.7,0.3,0.7,0.7
				C284.3,74.9,284,75.1,283.7,75.1z"/>
		</g>
		<g>
			<path class="st36" d="M283.7,79.5h-1c-0.4,0-0.7-0.3-0.7-0.7s0.3-0.7,0.7-0.7h1c0.4,0,0.7,0.3,0.7,0.7S284,79.5,283.7,79.5z"/>
		</g>
		<g>
			<path class="st36" d="M283.7,83.6h-1c-0.4,0-0.7-0.3-0.7-0.7s0.3-0.7,0.7-0.7h1c0.4,0,0.7,0.3,0.7,0.7S284,83.6,283.7,83.6z"/>
		</g>
		<line class="st38" x1="283.7" y1="87" x2="282.7" y2="87"/>
		<g>
			<path class="st37" d="M334.8,79.5H329c-0.4,0-0.7-0.3-0.7-0.7s0.3-0.7,0.7-0.7h5.8c0.4,0,0.7,0.3,0.7,0.7S335.2,79.5,334.8,79.5z
				"/>
		</g>
		<g>
			<path class="st37" d="M298.4,83.6h-11.7c-0.4,0-0.7-0.3-0.7-0.7s0.3-0.7,0.7-0.7h11.7c0.4,0,0.7,0.3,0.7,0.7
				S298.8,83.6,298.4,83.6z"/>
		</g>
		<g>
			<path class="st37" d="M298.4,87.8h-11.7c-0.4,0-0.7-0.3-0.7-0.7s0.3-0.7,0.7-0.7h11.7c0.4,0,0.7,0.3,0.7,0.7
				S298.8,87.8,298.4,87.8z"/>
		</g>
		<g>
			<path class="st37" d="M298.4,91.9h-11.7c-0.4,0-0.7-0.3-0.7-0.7s0.3-0.7,0.7-0.7h11.7c0.4,0,0.7,0.3,0.7,0.7
				S298.8,91.9,298.4,91.9z"/>
		</g>
		<g>
			<path class="st37" d="M298.4,96.4h-11.7c-0.4,0-0.7-0.3-0.7-0.7s0.3-0.7,0.7-0.7h11.7c0.4,0,0.7,0.3,0.7,0.7
				S298.8,96.4,298.4,96.4z"/>
		</g>
		<g>
			<path class="st39" d="M329.9,96.4h-23.8c-0.4,0-0.7-0.3-0.7-0.7s0.3-0.7,0.7-0.7h23.8c0.4,0,0.7,0.3,0.7,0.7
				S330.2,96.4,329.9,96.4z"/>
		</g>
		<g>
			<path class="st39" d="M329.9,91.9h-9.7c-0.4,0-0.7-0.3-0.7-0.7s0.3-0.7,0.7-0.7h9.7c0.4,0,0.7,0.3,0.7,0.7S330.2,91.9,329.9,91.9
				z"/>
		</g>
		<g>
			<path class="st39" d="M329.9,87.7H326c-0.4,0-0.7-0.3-0.7-0.7c0-0.4,0.3-0.7,0.7-0.7h3.8c0.4,0,0.7,0.3,0.7,0.7
				C330.5,87.4,330.2,87.7,329.9,87.7z"/>
		</g>
		<g>
			<path class="st35" d="M323.6,102.2h-40.9c-0.4,0-0.7-0.3-0.7-0.7s0.3-0.7,0.7-0.7h40.9c0.4,0,0.7,0.3,0.7,0.7
				S323.9,102.2,323.6,102.2z"/>
		</g>
		<g>
			<path class="st35" d="M333.3,102.2H326c-0.4,0-0.7-0.3-0.7-0.7s0.3-0.7,0.7-0.7h7.3c0.4,0,0.7,0.3,0.7,0.7
				S333.7,102.2,333.3,102.2z"/>
		</g>
		<g>
			<path class="st36" d="M310.5,106.7h-27.8c-0.4,0-0.7-0.3-0.7-0.7s0.3-0.7,0.7-0.7h27.8c0.4,0,0.7,0.3,0.7,0.7
				S310.9,106.7,310.5,106.7z"/>
		</g>
		<g>
			<path class="st36" d="M319.6,106.7h-5c-0.4,0-0.7-0.3-0.7-0.7s0.3-0.7,0.7-0.7h5c0.4,0,0.7,0.3,0.7,0.7S320,106.7,319.6,106.7z"
				/>
		</g>
		<g>
			<path class="st36" d="M319.6,111h-13.5c-0.4,0-0.7-0.3-0.7-0.7c0-0.4,0.3-0.7,0.7-0.7h13.5c0.4,0,0.7,0.3,0.7,0.7
				C320.3,110.7,320,111,319.6,111z"/>
		</g>
		<g>
			<path class="st36" d="M304.2,111h-2.7c-0.4,0-0.7-0.3-0.7-0.7c0-0.4,0.3-0.7,0.7-0.7h2.7c0.4,0,0.7,0.3,0.7,0.7
				C304.9,110.7,304.6,111,304.2,111z"/>
		</g>
		<g>
			<path class="st36" d="M299.3,111h-2.7c-0.4,0-0.7-0.3-0.7-0.7c0-0.4,0.3-0.7,0.7-0.7h2.7c0.4,0,0.7,0.3,0.7,0.7
				C300,110.7,299.7,111,299.3,111z"/>
		</g>
		<g>
			<path class="st36" d="M294.4,111h-2.7c-0.4,0-0.7-0.3-0.7-0.7c0-0.4,0.3-0.7,0.7-0.7h2.7c0.4,0,0.7,0.3,0.7,0.7
				C295.1,110.7,294.8,111,294.4,111z"/>
		</g>
		<g>
			<path class="st36" d="M289.5,111h-2.7c-0.4,0-0.7-0.3-0.7-0.7c0-0.4,0.3-0.7,0.7-0.7h2.7c0.4,0,0.7,0.3,0.7,0.7
				C290.2,110.7,289.9,111,289.5,111z"/>
		</g>
		<g>
			<path class="st37" d="M313.8,115.4h-28.2c-0.4,0-0.7-0.3-0.7-0.7s0.3-0.7,0.7-0.7h28.2c0.4,0,0.7,0.3,0.7,0.7
				S314.1,115.4,313.8,115.4z"/>
		</g>
		<g>
			<path class="st36" d="M283.7,111h-1c-0.4,0-0.7-0.3-0.7-0.7c0-0.4,0.3-0.7,0.7-0.7h1c0.4,0,0.7,0.3,0.7,0.7
				C284.3,110.7,284,111,283.7,111z"/>
		</g>
		<g>
			<path class="st36" d="M283.7,115.4h-1c-0.4,0-0.7-0.3-0.7-0.7s0.3-0.7,0.7-0.7h1c0.4,0,0.7,0.3,0.7,0.7S284,115.4,283.7,115.4z"
				/>
		</g>
		<g>
			<path class="st37" d="M334.8,115.4h-16.3c-0.4,0-0.7-0.3-0.7-0.7s0.3-0.7,0.7-0.7h16.3c0.4,0,0.7,0.3,0.7,0.7
				S335.2,115.4,334.8,115.4z"/>
		</g>
	</g>
</g>
<path class="st40" d="M144.9,38.1c-0.1-0.6-0.7-1-1.3-1c-1.8,0-3.4-1.1-4.1-2.7c-0.7-1.7-0.2-3.7,1.1-4.9c0.4-0.4,0.5-1,0.1-1.5
	c-0.9-1.2-2-2.2-3.1-3.2c-0.5-0.4-1.1-0.3-1.5,0.1c-1.2,1.3-3.3,1.8-4.9,1.1c-1.7-0.7-2.8-2.4-2.7-4.3c0-0.6-0.4-1.1-1-1.2
	c-1.5-0.2-3-0.2-4.5,0c-0.6,0.1-1,0.6-1,1.1c0.1,1.8-1,3.5-2.7,4.2c-1.6,0.7-3.7,0.2-4.9-1.1c-0.4-0.4-1-0.5-1.5-0.1
	c-1.2,0.9-2.3,2-3.2,3.2c-0.4,0.5-0.3,1.1,0.1,1.5c1.4,1.2,1.8,3.2,1.1,4.9c-0.7,1.6-2.4,2.7-4.3,2.7c-0.6,0-1.1,0.4-1.1,1
	c-0.2,1.5-0.2,3,0,4.5c0.1,0.6,0.7,1,1.3,1c1.7,0,3.4,1,4.1,2.7c0.7,1.7,0.2,3.7-1.1,4.9c-0.4,0.4-0.5,1-0.1,1.5
	c0.9,1.2,2,2.2,3.1,3.2c0.5,0.4,1.1,0.3,1.5-0.1c1.2-1.3,3.3-1.8,4.9-1.1c1.7,0.7,2.8,2.4,2.7,4.3c0,0.6,0.4,1.1,1,1.2
	c0.8,0.1,1.5,0.1,2.3,0.1c0.7,0,1.4,0,2.2-0.1c0.6-0.1,1-0.6,1-1.1c-0.1-1.8,1-3.5,2.7-4.2c1.6-0.7,3.7-0.2,4.9,1.1
	c0.4,0.4,1,0.5,1.5,0.1c1.2-0.9,2.3-2,3.2-3.2c0.4-0.5,0.3-1.1-0.1-1.5c-1.4-1.2-1.8-3.2-1.1-4.9c0.7-1.6,2.3-2.7,4.1-2.7l0.2,0
	c0.6,0,1.1-0.4,1.2-1C145.1,41.1,145.1,39.6,144.9,38.1L144.9,38.1z M125.2,46.9c-3.6,0-6.6-3-6.6-6.6c0-3.6,3-6.6,6.6-6.6
	c3.6,0,6.6,3,6.6,6.6C131.9,43.9,128.9,46.9,125.2,46.9L125.2,46.9z M125.2,46.9"/>
</svg>
